<mxfile host="drawio-plugin" modified="2023-06-03T17:39:46.341Z" agent="5.0 (Macintosh; Intel Mac OS X 10_15_7) AppleWebKit/537.36 (KHTML, like Gecko) Chrome/104.0.5112.102 Safari/537.36" etag="vFP_QloLIPRHSWDHswk0" version="20.5.3" type="embed" pages="3"><diagram id="VbmSNMpitOyS2P8errUJ" name="Page-1"><mxGraphModel dx="2134" dy="1097" grid="0" gridSize="10" guides="1" tooltips="1" connect="1" arrows="1" fold="1" page="1" pageScale="1" pageWidth="1169" pageHeight="827" math="0" shadow="0"><root><mxCell id="0"/><mxCell id="1" parent="0"/><mxCell id="O6HLDK9tNG4gK17g9pfa-27" value="" style="rounded=0;whiteSpace=wrap;html=1;sketch=0;fillColor=none;" parent="1" vertex="1"><mxGeometry x="213" y="55" width="938" height="751" as="geometry"/></mxCell><mxCell id="O6HLDK9tNG4gK17g9pfa-96" style="edgeStyle=orthogonalEdgeStyle;rounded=0;orthogonalLoop=1;jettySize=auto;html=1;exitX=0.25;exitY=1;exitDx=0;exitDy=0;entryX=0.5;entryY=0;entryDx=0;entryDy=0;strokeColor=default;strokeWidth=2;fontSize=15;endSize=6;dashed=1;" parent="1" source="O6HLDK9tNG4gK17g9pfa-21" target="O6HLDK9tNG4gK17g9pfa-4" edge="1"><mxGeometry relative="1" as="geometry"/></mxCell><mxCell id="O6HLDK9tNG4gK17g9pfa-100" value="Register" style="edgeLabel;html=1;align=center;verticalAlign=middle;resizable=0;points=[];fontSize=15;" parent="O6HLDK9tNG4gK17g9pfa-96" vertex="1" connectable="0"><mxGeometry x="-0.2134" y="-1" relative="1" as="geometry"><mxPoint as="offset"/></mxGeometry></mxCell><mxCell id="O6HLDK9tNG4gK17g9pfa-21" value="" style="rounded=0;whiteSpace=wrap;html=1;sketch=0;fillColor=none;dashed=1;" parent="1" vertex="1"><mxGeometry x="263" y="91" width="859" height="520" as="geometry"/></mxCell><mxCell id="O6HLDK9tNG4gK17g9pfa-70" value="listen" style="edgeStyle=orthogonalEdgeStyle;rounded=0;orthogonalLoop=1;jettySize=auto;html=1;entryX=1;entryY=0.75;entryDx=0;entryDy=0;fontSize=15;endSize=6;strokeWidth=3;fillColor=#fa6800;strokeColor=#C73500;" parent="1" source="O6HLDK9tNG4gK17g9pfa-8" target="O6HLDK9tNG4gK17g9pfa-10" edge="1"><mxGeometry relative="1" as="geometry"><Array as="points"><mxPoint x="1046" y="232"/></Array></mxGeometry></mxCell><mxCell id="O6HLDK9tNG4gK17g9pfa-72" style="edgeStyle=orthogonalEdgeStyle;rounded=0;orthogonalLoop=1;jettySize=auto;html=1;exitX=0.5;exitY=1;exitDx=0;exitDy=0;entryX=0.5;entryY=0;entryDx=0;entryDy=0;fontSize=15;strokeWidth=1;fillColor=#a0522d;strokeColor=#6D1F00;shape=link;" parent="1" source="O6HLDK9tNG4gK17g9pfa-8" edge="1"><mxGeometry relative="1" as="geometry"><mxPoint x="1048.495" y="448" as="targetPoint"/></mxGeometry></mxCell><mxCell id="O6HLDK9tNG4gK17g9pfa-8" value="Notification" style="shape=image;verticalLabelPosition=bottom;labelBackgroundColor=default;verticalAlign=top;aspect=fixed;imageAspect=0;image=https://pbs.twimg.com/profile_images/1235868806079057921/fTL08u_H_400x400.png;imageBorder=default;" parent="1" vertex="1"><mxGeometry x="1007" y="286" width="83" height="83" as="geometry"/></mxCell><mxCell id="O6HLDK9tNG4gK17g9pfa-4" value="Eureka (Discovery server)" style="shape=image;verticalLabelPosition=bottom;labelBackgroundColor=default;verticalAlign=top;aspect=fixed;imageAspect=0;image=https://pbs.twimg.com/profile_images/1235868806079057921/fTL08u_H_400x400.png;imageBorder=default;" parent="1" vertex="1"><mxGeometry x="437" y="685" width="83" height="83" as="geometry"/></mxCell><mxCell id="O6HLDK9tNG4gK17g9pfa-48" style="edgeStyle=orthogonalEdgeStyle;rounded=0;orthogonalLoop=1;jettySize=auto;html=1;fontSize=15;strokeWidth=1;fillColor=#a0522d;strokeColor=#6D1F00;shape=link;" parent="1" source="O6HLDK9tNG4gK17g9pfa-6" target="O6HLDK9tNG4gK17g9pfa-17" edge="1"><mxGeometry relative="1" as="geometry"/></mxCell><mxCell id="O6HLDK9tNG4gK17g9pfa-47" style="edgeStyle=orthogonalEdgeStyle;rounded=0;orthogonalLoop=1;jettySize=auto;html=1;fontSize=15;strokeWidth=1;fillColor=#a0522d;strokeColor=#6D1F00;shape=link;" parent="1" source="O6HLDK9tNG4gK17g9pfa-11" target="O6HLDK9tNG4gK17g9pfa-19" edge="1"><mxGeometry relative="1" as="geometry"/></mxCell><mxCell id="O6HLDK9tNG4gK17g9pfa-58" style="edgeStyle=orthogonalEdgeStyle;rounded=0;orthogonalLoop=1;jettySize=auto;html=1;fontSize=15;endSize=6;strokeWidth=3;strokeColor=#001DBC;fillColor=#0050ef;" parent="1" edge="1"><mxGeometry relative="1" as="geometry"><mxPoint x="478.5" y="488" as="sourcePoint"/><mxPoint x="478.5" y="203" as="targetPoint"/></mxGeometry></mxCell><mxCell id="O6HLDK9tNG4gK17g9pfa-78" value="Check" style="edgeLabel;html=1;align=center;verticalAlign=middle;resizable=0;points=[];fontSize=15;" parent="O6HLDK9tNG4gK17g9pfa-58" vertex="1" connectable="0"><mxGeometry x="-0.35" y="1" relative="1" as="geometry"><mxPoint x="-1" y="-56" as="offset"/></mxGeometry></mxCell><mxCell id="O6HLDK9tNG4gK17g9pfa-66" style="edgeStyle=orthogonalEdgeStyle;rounded=0;orthogonalLoop=1;jettySize=auto;html=1;fontSize=15;endSize=6;strokeWidth=3;fillColor=#0050ef;strokeColor=#001DBC;" parent="1" source="O6HLDK9tNG4gK17g9pfa-11" target="O6HLDK9tNG4gK17g9pfa-10" edge="1"><mxGeometry relative="1" as="geometry"/></mxCell><mxCell id="O6HLDK9tNG4gK17g9pfa-83" value="Notify" style="edgeLabel;html=1;align=center;verticalAlign=middle;resizable=0;points=[];fontSize=15;" parent="O6HLDK9tNG4gK17g9pfa-66" vertex="1" connectable="0"><mxGeometry x="-0.2904" y="-1" relative="1" as="geometry"><mxPoint x="-51" y="-2" as="offset"/></mxGeometry></mxCell><mxCell id="O6HLDK9tNG4gK17g9pfa-11" value="Order" style="shape=image;verticalLabelPosition=bottom;labelBackgroundColor=default;verticalAlign=top;aspect=fixed;imageAspect=0;image=https://pbs.twimg.com/profile_images/1235868806079057921/fTL08u_H_400x400.png;imageBorder=default;" parent="1" vertex="1"><mxGeometry x="461" y="488" width="83" height="83" as="geometry"/></mxCell><mxCell id="O6HLDK9tNG4gK17g9pfa-17" value="" style="shape=image;verticalLabelPosition=bottom;labelBackgroundColor=default;verticalAlign=top;aspect=fixed;imageAspect=0;image=https://www.opc-router.de/wp-content/uploads/2021/03/mongodb_thumbnail.png;" parent="1" vertex="1"><mxGeometry x="301" y="114" width="70.63" height="95" as="geometry"/></mxCell><mxCell id="O6HLDK9tNG4gK17g9pfa-19" value="" style="shape=image;verticalLabelPosition=bottom;labelBackgroundColor=default;verticalAlign=top;aspect=fixed;imageAspect=0;image=https://upload.wikimedia.org/wikipedia/commons/thumb/b/ba/Database-postgres.svg/1448px-Database-postgres.svg.png;" parent="1" vertex="1"><mxGeometry x="307" y="479.6" width="70.63" height="99.8" as="geometry"/></mxCell><mxCell id="O6HLDK9tNG4gK17g9pfa-24" value="" style="sketch=0;aspect=fixed;html=1;points=[];align=center;image;fontSize=12;image=img/lib/mscae/Docker.svg;fillColor=none;" parent="1" vertex="1"><mxGeometry x="274" y="543" width="50" height="41" as="geometry"/></mxCell><mxCell id="O6HLDK9tNG4gK17g9pfa-25" value="" style="sketch=0;aspect=fixed;html=1;points=[];align=center;image;fontSize=12;image=img/lib/mscae/Docker.svg;fillColor=none;" parent="1" vertex="1"><mxGeometry x="272" y="172" width="50" height="41" as="geometry"/></mxCell><mxCell id="O6HLDK9tNG4gK17g9pfa-81" style="edgeStyle=orthogonalEdgeStyle;rounded=0;orthogonalLoop=1;jettySize=auto;html=1;exitX=1;exitY=0.5;exitDx=0;exitDy=0;entryX=0;entryY=0.75;entryDx=0;entryDy=0;strokeColor=#001DBC;strokeWidth=3;fontSize=15;endSize=6;fillColor=#0050ef;" parent="1" source="O6HLDK9tNG4gK17g9pfa-2" target="O6HLDK9tNG4gK17g9pfa-10" edge="1"><mxGeometry relative="1" as="geometry"><Array as="points"><mxPoint x="675" y="232"/></Array></mxGeometry></mxCell><mxCell id="O6HLDK9tNG4gK17g9pfa-84" value="Notify" style="edgeLabel;html=1;align=center;verticalAlign=middle;resizable=0;points=[];fontSize=15;" parent="O6HLDK9tNG4gK17g9pfa-81" vertex="1" connectable="0"><mxGeometry x="-0.1051" y="-2" relative="1" as="geometry"><mxPoint x="-4" y="-5" as="offset"/></mxGeometry></mxCell><mxCell id="O6HLDK9tNG4gK17g9pfa-93" style="edgeStyle=orthogonalEdgeStyle;rounded=0;orthogonalLoop=1;jettySize=auto;html=1;entryX=0.25;entryY=0;entryDx=0;entryDy=0;strokeColor=#6D1F00;strokeWidth=1;fontSize=15;endSize=6;fillColor=#a0522d;shape=link;" parent="1" source="O6HLDK9tNG4gK17g9pfa-2" target="O6HLDK9tNG4gK17g9pfa-87" edge="1"><mxGeometry relative="1" as="geometry"/></mxCell><mxCell id="O6HLDK9tNG4gK17g9pfa-2" value="Payment" style="shape=image;verticalLabelPosition=bottom;labelBackgroundColor=default;verticalAlign=top;aspect=fixed;imageAspect=0;image=https://pbs.twimg.com/profile_images/1235868806079057921/fTL08u_H_400x400.png;imageBorder=default;" parent="1" vertex="1"><mxGeometry x="592" y="188" width="83" height="83" as="geometry"/></mxCell><mxCell id="O6HLDK9tNG4gK17g9pfa-104" style="edgeStyle=orthogonalEdgeStyle;rounded=0;orthogonalLoop=1;jettySize=auto;html=1;entryX=0.5;entryY=1;entryDx=0;entryDy=0;strokeColor=default;strokeWidth=2;fontSize=22;endSize=6;" parent="1" source="O6HLDK9tNG4gK17g9pfa-32" target="O6HLDK9tNG4gK17g9pfa-102" edge="1"><mxGeometry relative="1" as="geometry"/></mxCell><mxCell id="O6HLDK9tNG4gK17g9pfa-32" value="Internet" style="outlineConnect=0;dashed=0;verticalLabelPosition=bottom;verticalAlign=top;align=center;html=1;shape=mxgraph.aws3.internet_3;fillColor=#D2D3D3;gradientColor=none;sketch=0;fontSize=15;" parent="1" vertex="1"><mxGeometry x="8" y="324" width="79.5" height="54" as="geometry"/></mxCell><mxCell id="O6HLDK9tNG4gK17g9pfa-33" value="" style="image;html=1;image=img/lib/clip_art/networking/Email_128x128.png;sketch=0;fontSize=15;fillColor=none;" parent="1" vertex="1"><mxGeometry x="1046.48" y="137" width="52" height="43" as="geometry"/></mxCell><mxCell id="O6HLDK9tNG4gK17g9pfa-50" value="" style="endArrow=classic;html=1;rounded=0;fontSize=15;endSize=6;entryX=0;entryY=0.75;entryDx=0;entryDy=0;strokeWidth=3;strokeColor=#fcb603;fillColor=#ffcd28;gradientColor=#ffa500;exitX=0;exitY=0.5;exitDx=0;exitDy=0;edgeStyle=orthogonalEdgeStyle;curved=1;" parent="1" source="O6HLDK9tNG4gK17g9pfa-21" target="O6HLDK9tNG4gK17g9pfa-6" edge="1"><mxGeometry width="50" height="50" relative="1" as="geometry"><mxPoint x="267" y="350" as="sourcePoint"/><mxPoint x="317" y="300" as="targetPoint"/><Array as="points"><mxPoint x="355" y="351"/><mxPoint x="355" y="182"/></Array></mxGeometry></mxCell><mxCell id="O6HLDK9tNG4gK17g9pfa-59" value="/customer" style="edgeLabel;html=1;align=center;verticalAlign=middle;resizable=0;points=[];fontSize=15;" parent="O6HLDK9tNG4gK17g9pfa-50" vertex="1" connectable="0"><mxGeometry x="-0.5046" y="1" relative="1" as="geometry"><mxPoint x="-1" y="-55" as="offset"/></mxGeometry></mxCell><mxCell id="O6HLDK9tNG4gK17g9pfa-51" value="" style="endArrow=classic;html=1;rounded=0;fontSize=15;endSize=6;exitX=1;exitY=0.5;exitDx=0;exitDy=0;strokeWidth=3;strokeColor=#fcb603;fillColor=#ffcd28;gradientColor=#ffa500;edgeStyle=orthogonalEdgeStyle;curved=1;entryX=0;entryY=0.25;entryDx=0;entryDy=0;" parent="1" target="O6HLDK9tNG4gK17g9pfa-11" edge="1"><mxGeometry width="50" height="50" relative="1" as="geometry"><mxPoint x="260.99999999999955" y="353" as="sourcePoint"/><mxPoint x="367.32" y="342" as="targetPoint"/></mxGeometry></mxCell><mxCell id="O6HLDK9tNG4gK17g9pfa-60" value="/order" style="edgeLabel;html=1;align=center;verticalAlign=middle;resizable=0;points=[];fontSize=15;" parent="O6HLDK9tNG4gK17g9pfa-51" vertex="1" connectable="0"><mxGeometry x="0.2804" y="-3" relative="1" as="geometry"><mxPoint x="-4" y="-67" as="offset"/></mxGeometry></mxCell><mxCell id="O6HLDK9tNG4gK17g9pfa-61" value="" style="endArrow=classic;html=1;rounded=0;fontSize=15;endSize=6;entryX=0;entryY=0.75;entryDx=0;entryDy=0;strokeWidth=3;strokeColor=#001DBC;fillColor=#0050ef;exitX=0.75;exitY=0;exitDx=0;exitDy=0;" parent="1" source="O6HLDK9tNG4gK17g9pfa-11" target="O6HLDK9tNG4gK17g9pfa-2" edge="1"><mxGeometry width="50" height="50" relative="1" as="geometry"><mxPoint x="529" y="503.4" as="sourcePoint"/><mxPoint x="579" y="453" as="targetPoint"/><Array as="points"><mxPoint x="521" y="250"/></Array></mxGeometry></mxCell><mxCell id="O6HLDK9tNG4gK17g9pfa-79" value="Request&lt;br&gt;Payment" style="edgeLabel;html=1;align=center;verticalAlign=middle;resizable=0;points=[];fontSize=15;" parent="O6HLDK9tNG4gK17g9pfa-61" vertex="1" connectable="0"><mxGeometry x="-0.2851" y="3" relative="1" as="geometry"><mxPoint x="8" y="-1" as="offset"/></mxGeometry></mxCell><mxCell id="O6HLDK9tNG4gK17g9pfa-76" value="" style="endArrow=none;dashed=1;html=1;strokeWidth=1;rounded=0;strokeColor=default;fontSize=15;endSize=6;entryX=0.75;entryY=0;entryDx=0;entryDy=0;exitX=0.5;exitY=1;exitDx=0;exitDy=0;" parent="1" source="O6HLDK9tNG4gK17g9pfa-33" target="O6HLDK9tNG4gK17g9pfa-8" edge="1"><mxGeometry width="50" height="50" relative="1" as="geometry"><mxPoint x="953" y="374" as="sourcePoint"/><mxPoint x="1003" y="324" as="targetPoint"/></mxGeometry></mxCell><mxCell id="O6HLDK9tNG4gK17g9pfa-106" value="Send Email" style="edgeLabel;html=1;align=center;verticalAlign=middle;resizable=0;points=[];fontSize=12;" parent="O6HLDK9tNG4gK17g9pfa-76" vertex="1" connectable="0"><mxGeometry x="-0.3661" y="1" relative="1" as="geometry"><mxPoint x="1" y="-20" as="offset"/></mxGeometry></mxCell><mxCell id="O6HLDK9tNG4gK17g9pfa-10" value="RabbitMQ" style="shape=image;verticalLabelPosition=bottom;labelBackgroundColor=default;verticalAlign=top;aspect=fixed;imageAspect=0;image=https://cdn.freebiesupply.com/logos/large/2x/rabbitmq-logo-png-transparent.png;" parent="1" vertex="1"><mxGeometry x="837" y="185" width="59.49" height="63" as="geometry"/></mxCell><mxCell id="O6HLDK9tNG4gK17g9pfa-6" value="Customer" style="shape=image;verticalLabelPosition=bottom;labelBackgroundColor=default;verticalAlign=top;aspect=fixed;imageAspect=0;image=https://pbs.twimg.com/profile_images/1235868806079057921/fTL08u_H_400x400.png;imageBorder=default;" parent="1" vertex="1"><mxGeometry x="461" y="120" width="83" height="83" as="geometry"/></mxCell><mxCell id="O6HLDK9tNG4gK17g9pfa-86" value="" style="group" parent="1" vertex="1" connectable="0"><mxGeometry x="607" y="353" width="53" height="60.4" as="geometry"/></mxCell><mxCell id="O6HLDK9tNG4gK17g9pfa-87" value="" style="shape=image;verticalLabelPosition=bottom;labelBackgroundColor=default;verticalAlign=top;aspect=fixed;imageAspect=0;image=https://upload.wikimedia.org/wikipedia/commons/thumb/b/ba/Database-postgres.svg/1448px-Database-postgres.svg.png;" parent="O6HLDK9tNG4gK17g9pfa-86" vertex="1"><mxGeometry x="16.877352118112515" width="36.12264788188748" height="51.04120428447361" as="geometry"/></mxCell><mxCell id="O6HLDK9tNG4gK17g9pfa-88" value="" style="sketch=0;aspect=fixed;html=1;points=[];align=center;image;fontSize=12;image=img/lib/mscae/Docker.svg;fillColor=none;" parent="O6HLDK9tNG4gK17g9pfa-86" vertex="1"><mxGeometry y="36.67969348659003" width="25.571745633503813" height="20.968831419473126" as="geometry"/></mxCell><mxCell id="O6HLDK9tNG4gK17g9pfa-97" style="edgeStyle=orthogonalEdgeStyle;rounded=0;orthogonalLoop=1;jettySize=auto;html=1;entryX=0.77;entryY=0.999;entryDx=0;entryDy=0;entryPerimeter=0;dashed=1;strokeColor=default;strokeWidth=2;fontSize=15;endSize=6;" parent="1" source="O6HLDK9tNG4gK17g9pfa-20" target="O6HLDK9tNG4gK17g9pfa-21" edge="1"><mxGeometry relative="1" as="geometry"/></mxCell><mxCell id="O6HLDK9tNG4gK17g9pfa-101" value="Pull configuration" style="edgeLabel;html=1;align=center;verticalAlign=middle;resizable=0;points=[];fontSize=15;" parent="O6HLDK9tNG4gK17g9pfa-97" vertex="1" connectable="0"><mxGeometry x="0.0577" y="1" relative="1" as="geometry"><mxPoint as="offset"/></mxGeometry></mxCell><mxCell id="O6HLDK9tNG4gK17g9pfa-98" value="" style="group" parent="1" vertex="1" connectable="0"><mxGeometry x="882" y="685" width="164.48000000000002" height="83" as="geometry"/></mxCell><mxCell id="O6HLDK9tNG4gK17g9pfa-20" value="Config server" style="shape=image;verticalLabelPosition=bottom;labelBackgroundColor=default;verticalAlign=top;aspect=fixed;imageAspect=0;image=https://pbs.twimg.com/profile_images/1235868806079057921/fTL08u_H_400x400.png;imageBorder=default;" parent="O6HLDK9tNG4gK17g9pfa-98" vertex="1"><mxGeometry width="83" height="83" as="geometry"/></mxCell><mxCell id="O6HLDK9tNG4gK17g9pfa-22" value="" style="shape=image;verticalLabelPosition=bottom;labelBackgroundColor=default;verticalAlign=top;aspect=fixed;imageAspect=0;image=https://cdn-icons-png.flaticon.com/512/25/25231.png;" parent="O6HLDK9tNG4gK17g9pfa-98" vertex="1"><mxGeometry x="90" y="27.129999999999995" width="29" height="29" as="geometry"/></mxCell><mxCell id="O6HLDK9tNG4gK17g9pfa-23" value="" style="sketch=0;aspect=fixed;pointerEvents=1;shadow=0;dashed=0;html=1;strokeColor=none;labelPosition=center;verticalLabelPosition=bottom;verticalAlign=top;align=center;fillColor=#00188D;shape=mxgraph.azure.code_file" parent="O6HLDK9tNG4gK17g9pfa-98" vertex="1"><mxGeometry x="133.22000000000003" y="24.879999999999995" width="31.26" height="33.25" as="geometry"/></mxCell><mxCell id="O6HLDK9tNG4gK17g9pfa-99" style="edgeStyle=orthogonalEdgeStyle;rounded=0;orthogonalLoop=1;jettySize=auto;html=1;dashed=1;strokeColor=default;strokeWidth=2;fontSize=15;endSize=6;" parent="1" source="O6HLDK9tNG4gK17g9pfa-20" target="O6HLDK9tNG4gK17g9pfa-4" edge="1"><mxGeometry relative="1" as="geometry"/></mxCell><mxCell id="O6HLDK9tNG4gK17g9pfa-105" value="Pull configuration" style="edgeLabel;html=1;align=center;verticalAlign=middle;resizable=0;points=[];fontSize=22;" parent="O6HLDK9tNG4gK17g9pfa-99" vertex="1" connectable="0"><mxGeometry x="0.2079" y="1" relative="1" as="geometry"><mxPoint as="offset"/></mxGeometry></mxCell><mxCell id="O6HLDK9tNG4gK17g9pfa-102" value="API Gateway" style="rounded=0;labelBackgroundColor=none;labelBorderColor=none;sketch=0;strokeColor=#006EAF;fontSize=22;fillColor=#1ba1e2;html=1;whiteSpace=wrap;rotation=90;fontColor=#ffffff;fontStyle=1" parent="1" vertex="1"><mxGeometry x="-48.25" y="322.25" width="522" height="57.5" as="geometry"/></mxCell><mxCell id="O6HLDK9tNG4gK17g9pfa-103" value="" style="sketch=0;outlineConnect=0;dashed=0;verticalLabelPosition=bottom;verticalAlign=top;align=center;html=1;fontSize=12;fontStyle=0;aspect=fixed;pointerEvents=1;shape=mxgraph.aws4.gateway_load_balancer;labelBackgroundColor=none;labelBorderColor=none;" parent="1" vertex="1"><mxGeometry x="189.75" y="228" width="46" height="46" as="geometry"/></mxCell><mxCell id="O6HLDK9tNG4gK17g9pfa-26" value="" style="sketch=0;aspect=fixed;html=1;points=[];align=center;image;fontSize=12;image=img/lib/mscae/Docker.svg;fillColor=none;" parent="1" vertex="1"><mxGeometry x="799" y="233" width="50" height="41" as="geometry"/></mxCell><mxCell id="Sr1AToIsDmf1QCaqVxD8-1" value="" style="shape=image;verticalLabelPosition=bottom;labelBackgroundColor=default;verticalAlign=top;aspect=fixed;imageAspect=0;image=https://www.opc-router.de/wp-content/uploads/2021/03/mongodb_thumbnail.png;" parent="1" vertex="1"><mxGeometry x="1015" y="450" width="70.63" height="95" as="geometry"/></mxCell><mxCell id="Sr1AToIsDmf1QCaqVxD8-2" value="" style="sketch=0;aspect=fixed;html=1;points=[];align=center;image;fontSize=12;image=img/lib/mscae/Docker.svg;fillColor=none;" parent="1" vertex="1"><mxGeometry x="986" y="508" width="50" height="41" as="geometry"/></mxCell></root></mxGraphModel></diagram><diagram name="simple-ms-app" id="Hk2y3JhsyjX309pMNDhN"><mxGraphModel dx="2586" dy="1097" grid="0" gridSize="10" guides="1" tooltips="1" connect="0" arrows="0" fold="1" page="0" pageScale="1" pageWidth="1169" pageHeight="827" background="none" math="0" shadow="0"><root><mxCell id="Mkz1561AUryzhJ5JRjOw-0"/><mxCell id="Mkz1561AUryzhJ5JRjOw-1" parent="Mkz1561AUryzhJ5JRjOw-0"/><mxCell id="Mkz1561AUryzhJ5JRjOw-2" value="" style="rounded=0;whiteSpace=wrap;html=1;sketch=0;fillColor=none;" parent="Mkz1561AUryzhJ5JRjOw-1" vertex="1"><mxGeometry x="213" y="66" width="938" height="595" as="geometry"/></mxCell><mxCell id="Mkz1561AUryzhJ5JRjOw-3" style="edgeStyle=orthogonalEdgeStyle;rounded=0;orthogonalLoop=1;jettySize=auto;html=1;exitX=0.25;exitY=1;exitDx=0;exitDy=0;entryX=0.5;entryY=0;entryDx=0;entryDy=0;strokeColor=default;strokeWidth=2;fontSize=15;endSize=6;dashed=1;" parent="Mkz1561AUryzhJ5JRjOw-1" source="Mkz1561AUryzhJ5JRjOw-5" target="Mkz1561AUryzhJ5JRjOw-9" edge="1"><mxGeometry relative="1" as="geometry"/></mxCell><mxCell id="Mkz1561AUryzhJ5JRjOw-4" value="Register" style="edgeLabel;html=1;align=center;verticalAlign=middle;resizable=0;points=[];fontSize=15;" parent="Mkz1561AUryzhJ5JRjOw-3" vertex="1" connectable="0"><mxGeometry x="-0.2134" y="-1" relative="1" as="geometry"><mxPoint as="offset"/></mxGeometry></mxCell><mxCell id="Mkz1561AUryzhJ5JRjOw-5" value="" style="rounded=0;whiteSpace=wrap;html=1;sketch=0;fillColor=none;dashed=1;" parent="Mkz1561AUryzhJ5JRjOw-1" vertex="1"><mxGeometry x="263" y="91" width="859" height="520" as="geometry"/></mxCell><mxCell id="Mkz1561AUryzhJ5JRjOw-6" value="listen" style="edgeStyle=orthogonalEdgeStyle;rounded=0;orthogonalLoop=1;jettySize=auto;html=1;entryX=1;entryY=0.75;entryDx=0;entryDy=0;fontSize=15;endSize=6;strokeWidth=3;fillColor=#fa6800;strokeColor=#C73500;" parent="Mkz1561AUryzhJ5JRjOw-1" edge="1"><mxGeometry relative="1" as="geometry"><Array as="points"><mxPoint x="1046" y="232"/></Array><mxPoint x="1045.9999999999995" y="286" as="sourcePoint"/></mxGeometry></mxCell><mxCell id="Mkz1561AUryzhJ5JRjOw-9" value="Eureka (Discovery server)" style="shape=image;verticalLabelPosition=bottom;labelBackgroundColor=default;verticalAlign=top;aspect=fixed;imageAspect=0;image=https://pbs.twimg.com/profile_images/1235868806079057921/fTL08u_H_400x400.png;imageBorder=default;" parent="Mkz1561AUryzhJ5JRjOw-1" vertex="1"><mxGeometry x="437" y="685" width="83" height="83" as="geometry"/></mxCell><mxCell id="Mkz1561AUryzhJ5JRjOw-10" style="edgeStyle=orthogonalEdgeStyle;rounded=0;orthogonalLoop=1;jettySize=auto;html=1;fontSize=15;strokeWidth=1;fillColor=#a0522d;strokeColor=#6D1F00;shape=link;" parent="Mkz1561AUryzhJ5JRjOw-1" source="Mkz1561AUryzhJ5JRjOw-37" edge="1"><mxGeometry relative="1" as="geometry"><mxPoint x="699" y="161.5000000000001" as="targetPoint"/></mxGeometry></mxCell><mxCell id="Mkz1561AUryzhJ5JRjOw-11" style="edgeStyle=orthogonalEdgeStyle;rounded=0;orthogonalLoop=1;jettySize=auto;html=1;fontSize=15;strokeWidth=1;fillColor=#a0522d;strokeColor=#6D1F00;shape=link;" parent="Mkz1561AUryzhJ5JRjOw-1" source="Mkz1561AUryzhJ5JRjOw-16" target="Mkz1561AUryzhJ5JRjOw-18" edge="1"><mxGeometry relative="1" as="geometry"/></mxCell><mxCell id="Mkz1561AUryzhJ5JRjOw-12" style="edgeStyle=orthogonalEdgeStyle;rounded=0;orthogonalLoop=1;jettySize=auto;html=1;fontSize=15;endSize=6;strokeWidth=2;strokeColor=#001DBC;fillColor=#0050ef;" parent="Mkz1561AUryzhJ5JRjOw-1" edge="1"><mxGeometry relative="1" as="geometry"><mxPoint x="502.19" y="488" as="sourcePoint"/><mxPoint x="502.19" y="203" as="targetPoint"/></mxGeometry></mxCell><mxCell id="Mkz1561AUryzhJ5JRjOw-13" value="HTTP" style="edgeLabel;html=1;align=center;verticalAlign=middle;resizable=0;points=[];fontSize=15;" parent="Mkz1561AUryzhJ5JRjOw-12" vertex="1" connectable="0"><mxGeometry x="-0.35" y="1" relative="1" as="geometry"><mxPoint x="-1" y="-56" as="offset"/></mxGeometry></mxCell><mxCell id="PV4jSnhk1A6-MapW2e3p-5" style="edgeStyle=orthogonalEdgeStyle;rounded=0;orthogonalLoop=1;jettySize=auto;html=1;exitX=0.75;exitY=0;exitDx=0;exitDy=0;entryX=0;entryY=0.5;entryDx=0;entryDy=0;" parent="Mkz1561AUryzhJ5JRjOw-1" source="Mkz1561AUryzhJ5JRjOw-16" target="PV4jSnhk1A6-MapW2e3p-3" edge="1"><mxGeometry relative="1" as="geometry"/></mxCell><mxCell id="Mkz1561AUryzhJ5JRjOw-16" value="School" style="shape=image;verticalLabelPosition=bottom;labelBackgroundColor=default;verticalAlign=top;aspect=fixed;imageAspect=0;image=https://pbs.twimg.com/profile_images/1235868806079057921/fTL08u_H_400x400.png;imageBorder=default;" parent="Mkz1561AUryzhJ5JRjOw-1" vertex="1"><mxGeometry x="461" y="488" width="83" height="83" as="geometry"/></mxCell><mxCell id="Mkz1561AUryzhJ5JRjOw-18" value="" style="shape=image;verticalLabelPosition=bottom;labelBackgroundColor=default;verticalAlign=top;aspect=fixed;imageAspect=0;image=https://upload.wikimedia.org/wikipedia/commons/thumb/b/ba/Database-postgres.svg/1448px-Database-postgres.svg.png;" parent="Mkz1561AUryzhJ5JRjOw-1" vertex="1"><mxGeometry x="699" y="479.6" width="70.63" height="99.8" as="geometry"/></mxCell><mxCell id="Mkz1561AUryzhJ5JRjOw-19" value="" style="sketch=0;aspect=fixed;html=1;points=[];align=center;image;fontSize=12;image=img/lib/mscae/Docker.svg;fillColor=none;" parent="Mkz1561AUryzhJ5JRjOw-1" vertex="1"><mxGeometry x="739" y="547" width="50" height="41" as="geometry"/></mxCell><mxCell id="Mkz1561AUryzhJ5JRjOw-25" style="edgeStyle=orthogonalEdgeStyle;rounded=0;orthogonalLoop=1;jettySize=auto;html=1;entryX=0.5;entryY=1;entryDx=0;entryDy=0;strokeColor=default;strokeWidth=2;fontSize=22;endSize=6;" parent="Mkz1561AUryzhJ5JRjOw-1" source="Mkz1561AUryzhJ5JRjOw-26" target="Mkz1561AUryzhJ5JRjOw-49" edge="1"><mxGeometry relative="1" as="geometry"/></mxCell><mxCell id="Mkz1561AUryzhJ5JRjOw-26" value="Internet" style="outlineConnect=0;dashed=0;verticalLabelPosition=bottom;verticalAlign=top;align=center;html=1;shape=mxgraph.aws3.internet_3;fillColor=#D2D3D3;gradientColor=none;sketch=0;fontSize=15;" parent="Mkz1561AUryzhJ5JRjOw-1" vertex="1"><mxGeometry x="8" y="324" width="79.5" height="54" as="geometry"/></mxCell><mxCell id="Mkz1561AUryzhJ5JRjOw-28" value="" style="endArrow=classic;html=1;rounded=0;fontSize=15;endSize=6;entryX=0;entryY=0.75;entryDx=0;entryDy=0;strokeWidth=3;strokeColor=#fcb603;fillColor=#ffcd28;gradientColor=#ffa500;exitX=0;exitY=0.5;exitDx=0;exitDy=0;" parent="Mkz1561AUryzhJ5JRjOw-1" source="Mkz1561AUryzhJ5JRjOw-5" target="Mkz1561AUryzhJ5JRjOw-37" edge="1"><mxGeometry width="50" height="50" relative="1" as="geometry"><mxPoint x="267" y="350" as="sourcePoint"/><mxPoint x="317" y="300" as="targetPoint"/></mxGeometry></mxCell><mxCell id="Mkz1561AUryzhJ5JRjOw-29" value="/students" style="edgeLabel;html=1;align=center;verticalAlign=middle;resizable=0;points=[];fontSize=15;" parent="Mkz1561AUryzhJ5JRjOw-28" vertex="1" connectable="0"><mxGeometry x="-0.5046" y="1" relative="1" as="geometry"><mxPoint as="offset"/></mxGeometry></mxCell><mxCell id="Mkz1561AUryzhJ5JRjOw-30" value="" style="endArrow=classic;html=1;rounded=0;fontSize=15;endSize=6;exitX=1;exitY=0.5;exitDx=0;exitDy=0;strokeWidth=3;strokeColor=#fcb603;fillColor=#ffcd28;gradientColor=#ffa500;" parent="Mkz1561AUryzhJ5JRjOw-1" target="Mkz1561AUryzhJ5JRjOw-16" edge="1"><mxGeometry width="50" height="50" relative="1" as="geometry"><mxPoint x="260.99999999999955" y="353" as="sourcePoint"/><mxPoint x="367.32" y="342" as="targetPoint"/></mxGeometry></mxCell><mxCell id="Mkz1561AUryzhJ5JRjOw-31" value="/schools" style="edgeLabel;html=1;align=center;verticalAlign=middle;resizable=0;points=[];fontSize=15;" parent="Mkz1561AUryzhJ5JRjOw-30" vertex="1" connectable="0"><mxGeometry x="0.2804" y="-3" relative="1" as="geometry"><mxPoint x="-82" y="-69" as="offset"/></mxGeometry></mxCell><mxCell id="PV4jSnhk1A6-MapW2e3p-4" style="edgeStyle=orthogonalEdgeStyle;rounded=0;orthogonalLoop=1;jettySize=auto;html=1;exitX=0.75;exitY=1;exitDx=0;exitDy=0;entryX=0;entryY=0.25;entryDx=0;entryDy=0;" parent="Mkz1561AUryzhJ5JRjOw-1" source="Mkz1561AUryzhJ5JRjOw-37" target="PV4jSnhk1A6-MapW2e3p-3" edge="1"><mxGeometry relative="1" as="geometry"/></mxCell><mxCell id="Mkz1561AUryzhJ5JRjOw-37" value="Student" style="shape=image;verticalLabelPosition=bottom;labelBackgroundColor=default;verticalAlign=top;aspect=fixed;imageAspect=0;image=https://pbs.twimg.com/profile_images/1235868806079057921/fTL08u_H_400x400.png;imageBorder=default;" parent="Mkz1561AUryzhJ5JRjOw-1" vertex="1"><mxGeometry x="461" y="120" width="83" height="83" as="geometry"/></mxCell><mxCell id="Mkz1561AUryzhJ5JRjOw-41" style="edgeStyle=orthogonalEdgeStyle;rounded=0;orthogonalLoop=1;jettySize=auto;html=1;entryX=0.77;entryY=0.999;entryDx=0;entryDy=0;entryPerimeter=0;dashed=1;strokeColor=default;strokeWidth=2;fontSize=15;endSize=6;" parent="Mkz1561AUryzhJ5JRjOw-1" source="Mkz1561AUryzhJ5JRjOw-44" target="Mkz1561AUryzhJ5JRjOw-5" edge="1"><mxGeometry relative="1" as="geometry"/></mxCell><mxCell id="Mkz1561AUryzhJ5JRjOw-42" value="Pull configuration" style="edgeLabel;html=1;align=center;verticalAlign=middle;resizable=0;points=[];fontSize=15;" parent="Mkz1561AUryzhJ5JRjOw-41" vertex="1" connectable="0"><mxGeometry x="0.0577" y="1" relative="1" as="geometry"><mxPoint as="offset"/></mxGeometry></mxCell><mxCell id="Mkz1561AUryzhJ5JRjOw-43" value="" style="group" parent="Mkz1561AUryzhJ5JRjOw-1" vertex="1" connectable="0"><mxGeometry x="882" y="685" width="164.48000000000002" height="83" as="geometry"/></mxCell><mxCell id="Mkz1561AUryzhJ5JRjOw-44" value="Config server" style="shape=image;verticalLabelPosition=bottom;labelBackgroundColor=default;verticalAlign=top;aspect=fixed;imageAspect=0;image=https://pbs.twimg.com/profile_images/1235868806079057921/fTL08u_H_400x400.png;imageBorder=default;" parent="Mkz1561AUryzhJ5JRjOw-43" vertex="1"><mxGeometry width="83" height="83" as="geometry"/></mxCell><mxCell id="Mkz1561AUryzhJ5JRjOw-45" value="" style="shape=image;verticalLabelPosition=bottom;labelBackgroundColor=default;verticalAlign=top;aspect=fixed;imageAspect=0;image=https://cdn-icons-png.flaticon.com/512/25/25231.png;" parent="Mkz1561AUryzhJ5JRjOw-43" vertex="1"><mxGeometry x="90" y="27.129999999999995" width="29" height="29" as="geometry"/></mxCell><mxCell id="Mkz1561AUryzhJ5JRjOw-46" value="" style="sketch=0;aspect=fixed;pointerEvents=1;shadow=0;dashed=0;html=1;strokeColor=none;labelPosition=center;verticalLabelPosition=bottom;verticalAlign=top;align=center;fillColor=#00188D;shape=mxgraph.azure.code_file" parent="Mkz1561AUryzhJ5JRjOw-43" vertex="1"><mxGeometry x="133.22000000000003" y="24.879999999999995" width="31.26" height="33.25" as="geometry"/></mxCell><mxCell id="Mkz1561AUryzhJ5JRjOw-47" style="edgeStyle=orthogonalEdgeStyle;rounded=0;orthogonalLoop=1;jettySize=auto;html=1;dashed=1;strokeColor=default;strokeWidth=2;fontSize=15;endSize=6;" parent="Mkz1561AUryzhJ5JRjOw-1" source="Mkz1561AUryzhJ5JRjOw-44" target="Mkz1561AUryzhJ5JRjOw-9" edge="1"><mxGeometry relative="1" as="geometry"/></mxCell><mxCell id="Mkz1561AUryzhJ5JRjOw-48" value="Pull configuration" style="edgeLabel;html=1;align=center;verticalAlign=middle;resizable=0;points=[];fontSize=22;" parent="Mkz1561AUryzhJ5JRjOw-47" vertex="1" connectable="0"><mxGeometry x="0.2079" y="1" relative="1" as="geometry"><mxPoint x="32" y="-1" as="offset"/></mxGeometry></mxCell><mxCell id="Mkz1561AUryzhJ5JRjOw-49" value="API Gateway" style="rounded=0;labelBackgroundColor=none;labelBorderColor=none;sketch=0;strokeColor=#006EAF;fontSize=22;fillColor=#1ba1e2;html=1;whiteSpace=wrap;rotation=90;fontColor=#ffffff;fontStyle=1" parent="Mkz1561AUryzhJ5JRjOw-1" vertex="1"><mxGeometry x="-48.25" y="322.25" width="522" height="57.5" as="geometry"/></mxCell><mxCell id="Mkz1561AUryzhJ5JRjOw-50" value="" style="sketch=0;outlineConnect=0;dashed=0;verticalLabelPosition=bottom;verticalAlign=top;align=center;html=1;fontSize=12;fontStyle=0;aspect=fixed;pointerEvents=1;shape=mxgraph.aws4.gateway_load_balancer;labelBackgroundColor=none;labelBorderColor=none;" parent="Mkz1561AUryzhJ5JRjOw-1" vertex="1"><mxGeometry x="189.75" y="228" width="46" height="46" as="geometry"/></mxCell><mxCell id="WYsTmNUXfwcSGCrvJzmU-0" value="" style="shape=image;verticalLabelPosition=bottom;labelBackgroundColor=default;verticalAlign=top;aspect=fixed;imageAspect=0;image=https://upload.wikimedia.org/wikipedia/commons/thumb/b/ba/Database-postgres.svg/1448px-Database-postgres.svg.png;" parent="Mkz1561AUryzhJ5JRjOw-1" vertex="1"><mxGeometry x="695" y="107.30000000000001" width="70.63" height="99.8" as="geometry"/></mxCell><mxCell id="WYsTmNUXfwcSGCrvJzmU-1" value="" style="sketch=0;aspect=fixed;html=1;points=[];align=center;image;fontSize=12;image=img/lib/mscae/Docker.svg;fillColor=none;" parent="Mkz1561AUryzhJ5JRjOw-1" vertex="1"><mxGeometry x="735" y="174.7" width="50" height="41" as="geometry"/></mxCell><mxCell id="PV4jSnhk1A6-MapW2e3p-3" value="" style="shape=image;verticalLabelPosition=bottom;labelBackgroundColor=default;verticalAlign=top;aspect=fixed;imageAspect=0;image=https://avatars.githubusercontent.com/u/11860887?s=280&amp;v=4;" parent="Mkz1561AUryzhJ5JRjOw-1" vertex="1"><mxGeometry x="873" y="299" width="104" height="104" as="geometry"/></mxCell></root></mxGraphModel></diagram><diagram id="bP6ZdW58V9GPx5OJXDwx" name="Page-3">&#xa;    <mxGraphModel dx="1586" dy="694" grid="0" gridSize="10" guides="1" tooltips="1" connect="1" arrows="1" fold="1" page="0" pageScale="1" pageWidth="1169" pageHeight="827" math="0" shadow="0">&#xa;      <root>&#xa;        <mxCell id="0"/>&#xa;        <mxCell id="1" parent="0"/>&#xa;        <mxCell id="WWQ-MBUYeXolELqLjDh3-1" value="Student" style="swimlane;fontStyle=0;childLayout=stackLayout;horizontal=1;startSize=26;fillColor=none;horizontalStack=0;resizeParent=1;resizeParentMax=0;resizeLast=0;collapsible=1;marginBottom=0;whiteSpace=wrap;html=1;" vertex="1" parent="1">&#xa;          <mxGeometry x="-137" y="28" width="140" height="130" as="geometry"/>&#xa;        </mxCell>&#xa;        <mxCell id="WWQ-MBUYeXolELqLjDh3-2" value="id" style="text;strokeColor=none;fillColor=none;align=left;verticalAlign=top;spacingLeft=4;spacingRight=4;overflow=hidden;rotatable=0;points=[[0,0.5],[1,0.5]];portConstraint=eastwest;whiteSpace=wrap;html=1;" vertex="1" parent="WWQ-MBUYeXolELqLjDh3-1">&#xa;          <mxGeometry y="26" width="140" height="26" as="geometry"/>&#xa;        </mxCell>&#xa;        <mxCell id="WWQ-MBUYeXolELqLjDh3-3" value="firstname" style="text;strokeColor=none;fillColor=none;align=left;verticalAlign=top;spacingLeft=4;spacingRight=4;overflow=hidden;rotatable=0;points=[[0,0.5],[1,0.5]];portConstraint=eastwest;whiteSpace=wrap;html=1;" vertex="1" parent="WWQ-MBUYeXolELqLjDh3-1">&#xa;          <mxGeometry y="52" width="140" height="26" as="geometry"/>&#xa;        </mxCell>&#xa;        <mxCell id="WWQ-MBUYeXolELqLjDh3-4" value="lastname" style="text;strokeColor=none;fillColor=none;align=left;verticalAlign=top;spacingLeft=4;spacingRight=4;overflow=hidden;rotatable=0;points=[[0,0.5],[1,0.5]];portConstraint=eastwest;whiteSpace=wrap;html=1;" vertex="1" parent="WWQ-MBUYeXolELqLjDh3-1">&#xa;          <mxGeometry y="78" width="140" height="26" as="geometry"/>&#xa;        </mxCell>&#xa;        <mxCell id="WWQ-MBUYeXolELqLjDh3-9" value="email" style="text;strokeColor=none;fillColor=none;align=left;verticalAlign=top;spacingLeft=4;spacingRight=4;overflow=hidden;rotatable=0;points=[[0,0.5],[1,0.5]];portConstraint=eastwest;whiteSpace=wrap;html=1;" vertex="1" parent="WWQ-MBUYeXolELqLjDh3-1">&#xa;          <mxGeometry y="104" width="140" height="26" as="geometry"/>&#xa;        </mxCell>&#xa;        <mxCell id="WWQ-MBUYeXolELqLjDh3-5" value="School" style="swimlane;fontStyle=0;childLayout=stackLayout;horizontal=1;startSize=26;fillColor=none;horizontalStack=0;resizeParent=1;resizeParentMax=0;resizeLast=0;collapsible=1;marginBottom=0;whiteSpace=wrap;html=1;" vertex="1" parent="1">&#xa;          <mxGeometry x="102" y="134" width="140" height="104" as="geometry"/>&#xa;        </mxCell>&#xa;        <mxCell id="WWQ-MBUYeXolELqLjDh3-6" value="id" style="text;strokeColor=none;fillColor=none;align=left;verticalAlign=top;spacingLeft=4;spacingRight=4;overflow=hidden;rotatable=0;points=[[0,0.5],[1,0.5]];portConstraint=eastwest;whiteSpace=wrap;html=1;" vertex="1" parent="WWQ-MBUYeXolELqLjDh3-5">&#xa;          <mxGeometry y="26" width="140" height="26" as="geometry"/>&#xa;        </mxCell>&#xa;        <mxCell id="WWQ-MBUYeXolELqLjDh3-7" value="name" style="text;strokeColor=none;fillColor=none;align=left;verticalAlign=top;spacingLeft=4;spacingRight=4;overflow=hidden;rotatable=0;points=[[0,0.5],[1,0.5]];portConstraint=eastwest;whiteSpace=wrap;html=1;" vertex="1" parent="WWQ-MBUYeXolELqLjDh3-5">&#xa;          <mxGeometry y="52" width="140" height="26" as="geometry"/>&#xa;        </mxCell>&#xa;        <mxCell id="WWQ-MBUYeXolELqLjDh3-8" value="email" style="text;strokeColor=none;fillColor=none;align=left;verticalAlign=top;spacingLeft=4;spacingRight=4;overflow=hidden;rotatable=0;points=[[0,0.5],[1,0.5]];portConstraint=eastwest;whiteSpace=wrap;html=1;" vertex="1" parent="WWQ-MBUYeXolELqLjDh3-5">&#xa;          <mxGeometry y="78" width="140" height="26" as="geometry"/>&#xa;        </mxCell>&#xa;        <mxCell id="WWQ-MBUYeXolELqLjDh3-10" value="" style="edgeStyle=entityRelationEdgeStyle;fontSize=12;html=1;endArrow=ERoneToMany;rounded=0;entryX=1;entryY=0.5;entryDx=0;entryDy=0;exitX=0;exitY=0.5;exitDx=0;exitDy=0;" edge="1" parent="1" source="WWQ-MBUYeXolELqLjDh3-7" target="WWQ-MBUYeXolELqLjDh3-1">&#xa;          <mxGeometry width="100" height="100" relative="1" as="geometry">&#xa;            <mxPoint x="135" y="233" as="sourcePoint"/>&#xa;            <mxPoint x="235" y="133" as="targetPoint"/>&#xa;          </mxGeometry>&#xa;        </mxCell>&#xa;      </root>&#xa;    </mxGraphModel>&#xa;  </diagram></mxfile>